<svg width="393" height="312" viewBox="0 0 393 312" fill="none" xmlns="http://www.w3.org/2000/svg">
<g filter="url(#filter0_d_92_131)">
<path opacity="0.9" d="M325 303L325.01 302.5H325H4.5V0.5H388.5V242H389C388.5 242 388.5 242 388.5 242V242.001V242.004V242.017L388.5 242.068L388.499 242.269C388.499 242.446 388.497 242.706 388.494 243.041C388.488 243.709 388.477 244.672 388.453 245.849C388.406 248.205 388.313 251.418 388.126 254.848C387.939 258.279 387.658 261.922 387.239 265.138C386.817 268.37 386.261 271.122 385.54 272.803C385.473 272.96 385.387 273.182 385.278 273.46C384.153 276.354 380.62 285.435 370.694 293.104L370.605 293.174C369.032 294.389 367.945 295.229 366.531 296.07C365.091 296.927 363.3 297.792 360.308 299.038L360.306 299.039C357.994 300.013 354.641 300.725 350.878 301.239C347.124 301.752 342.999 302.063 339.163 302.251C335.328 302.438 331.789 302.5 329.208 302.516C327.918 302.523 326.867 302.52 326.14 302.514C325.776 302.511 325.493 302.507 325.301 302.505L325.209 302.503C325.157 302.503 325.115 302.502 325.083 302.501L325.028 302.5L325.014 302.5L325.011 302.5L325.01 302.5C325.01 302.5 325.01 302.5 325 303Z" fill="#172233" stroke="black" stroke-linejoin="bevel"/>
<path d="M116.176 263.228L116.284 265.604C113.812 266.108 111.592 266.36 109.624 266.36C107.656 266.36 106.06 266.096 104.836 265.568C103.636 265.016 102.712 264.164 102.064 263.012C101.392 261.884 100.924 260.588 100.66 259.124C100.42 257.636 100.3 255.788 100.3 253.58C100.3 251.348 100.42 249.488 100.66 248C100.924 246.512 101.392 245.192 102.064 244.04C102.712 242.888 103.624 242.048 104.8 241.52C106 240.992 107.572 240.728 109.516 240.728C110.476 240.728 111.52 240.8 112.648 240.944C113.776 241.064 114.988 241.256 116.284 241.52L116.176 243.86C113.776 243.428 111.616 243.212 109.696 243.212C108.376 243.212 107.296 243.404 106.456 243.788C105.616 244.148 104.944 244.748 104.44 245.588C103.96 246.404 103.624 247.472 103.432 248.792C103.264 250.112 103.18 251.72 103.18 253.616C103.18 255.512 103.252 257.036 103.396 258.188C103.564 259.34 103.876 260.372 104.332 261.284C104.788 262.22 105.448 262.892 106.312 263.3C107.2 263.684 108.496 263.876 110.2 263.876C111.88 263.876 113.872 263.66 116.176 263.228ZM131.582 262.616V248H134.282V266H131.582V264.74C129.782 265.82 128.006 266.36 126.254 266.36C125.03 266.36 124.022 266.216 123.23 265.928C122.438 265.64 121.814 265.148 121.358 264.452C120.926 263.756 120.614 262.844 120.422 261.716C120.254 260.564 120.17 259.124 120.17 257.396V248H122.87V257.36C122.87 258.656 122.918 259.736 123.014 260.6C123.11 261.44 123.29 262.112 123.554 262.616C123.818 263.12 124.202 263.468 124.706 263.66C125.21 263.852 125.858 263.948 126.65 263.948C127.442 263.948 128.246 263.84 129.062 263.624C129.878 263.384 130.502 263.156 130.934 262.94L131.582 262.616ZM145.127 250.052C142.511 250.052 141.203 250.964 141.203 252.788C141.203 253.652 141.503 254.24 142.103 254.552C142.727 254.912 144.095 255.272 146.207 255.632C147.287 255.824 148.199 256.04 148.943 256.28C149.687 256.496 150.287 256.808 150.743 257.216C151.223 257.6 151.559 258.092 151.751 258.692C151.967 259.292 152.075 260.06 152.075 260.996C152.075 262.868 151.487 264.236 150.311 265.1C149.135 265.94 147.395 266.36 145.091 266.36C144.347 266.36 143.531 266.312 142.643 266.216C141.779 266.144 140.843 266.024 139.835 265.856L138.755 265.676L138.899 263.336C140.267 263.528 141.467 263.684 142.499 263.804C143.531 263.9 144.395 263.948 145.091 263.948C146.483 263.948 147.539 263.732 148.259 263.3C149.003 262.844 149.375 262.088 149.375 261.032C149.375 260.024 149.063 259.316 148.439 258.908C147.791 258.524 146.423 258.176 144.335 257.864C143.279 257.696 142.379 257.504 141.635 257.288C140.915 257.048 140.315 256.748 139.835 256.388C139.379 256.004 139.043 255.524 138.827 254.948C138.611 254.372 138.503 253.652 138.503 252.788C138.503 251.924 138.659 251.168 138.971 250.52C139.307 249.872 139.763 249.332 140.339 248.9C140.915 248.468 141.599 248.156 142.391 247.964C143.183 247.748 144.047 247.64 144.983 247.64C145.727 247.64 146.555 247.688 147.467 247.784C148.379 247.856 149.387 247.976 150.491 248.144L151.499 248.324L151.427 250.628C150.083 250.436 148.883 250.292 147.827 250.196C146.795 250.1 145.895 250.052 145.127 250.052ZM165.533 248V250.34H159.809V258.944C159.809 261.032 159.965 262.388 160.277 263.012C160.565 263.66 161.273 263.984 162.401 263.984L165.605 263.768L165.785 266C164.969 266.12 164.249 266.216 163.625 266.288C163.025 266.36 162.521 266.396 162.113 266.396C161.177 266.396 160.385 266.288 159.737 266.072C159.113 265.88 158.609 265.532 158.225 265.028C157.841 264.524 157.565 263.852 157.397 263.012C157.229 262.172 157.145 261.104 157.145 259.808V250.34H154.589V248H157.145V242.492H159.809V248H165.533ZM168.038 256.964C168.038 255.308 168.17 253.892 168.434 252.716C168.722 251.54 169.178 250.58 169.802 249.836C170.426 249.068 171.23 248.516 172.214 248.18C173.198 247.82 174.386 247.64 175.778 247.64C177.17 247.64 178.346 247.82 179.306 248.18C180.29 248.516 181.082 249.068 181.682 249.836C182.306 250.58 182.75 251.54 183.014 252.716C183.302 253.892 183.446 255.308 183.446 256.964C183.446 258.62 183.314 260.036 183.05 261.212C182.81 262.388 182.39 263.36 181.79 264.128C181.19 264.896 180.398 265.46 179.414 265.82C178.43 266.18 177.206 266.36 175.742 266.36C174.278 266.36 173.054 266.18 172.07 265.82C171.086 265.46 170.294 264.896 169.694 264.128C169.094 263.36 168.662 262.388 168.398 261.212C168.158 260.036 168.038 258.62 168.038 256.964ZM170.81 256.892C170.81 258.212 170.87 259.328 170.99 260.24C171.134 261.128 171.386 261.86 171.746 262.436C172.13 262.988 172.646 263.396 173.294 263.66C173.942 263.9 174.77 264.02 175.778 264.02C176.786 264.02 177.602 263.9 178.226 263.66C178.874 263.42 179.378 263.024 179.738 262.472C180.098 261.896 180.338 261.164 180.458 260.276C180.602 259.364 180.674 258.248 180.674 256.928C180.674 255.608 180.59 254.504 180.422 253.616C180.278 252.728 180.014 252.02 179.63 251.492C179.246 250.94 178.742 250.556 178.118 250.34C177.494 250.1 176.714 249.98 175.778 249.98C174.842 249.98 174.05 250.1 173.402 250.34C172.778 250.556 172.274 250.94 171.89 251.492C171.506 252.02 171.23 252.728 171.062 253.616C170.894 254.48 170.81 255.572 170.81 256.892ZM190.55 251.384V266H187.85V248H190.514V249.26C192.314 248.18 194.066 247.64 195.77 247.64C198.002 247.64 199.562 248.252 200.45 249.476C200.858 249.236 201.326 249.008 201.854 248.792C202.382 248.552 202.934 248.348 203.51 248.18C204.11 248.012 204.698 247.88 205.274 247.784C205.85 247.688 206.378 247.64 206.858 247.64C208.058 247.64 209.042 247.796 209.81 248.108C210.602 248.396 211.226 248.888 211.682 249.584C212.162 250.256 212.486 251.168 212.654 252.32C212.846 253.448 212.942 254.84 212.942 256.496V266H210.242V256.568C210.242 255.32 210.194 254.276 210.098 253.436C210.002 252.596 209.81 251.924 209.522 251.42C209.258 250.916 208.874 250.568 208.37 250.376C207.89 250.16 207.254 250.052 206.462 250.052C205.67 250.052 204.854 250.172 204.014 250.412C203.174 250.628 202.526 250.844 202.07 251.06L201.386 251.384C201.698 252.152 201.854 253.904 201.854 256.64V266H199.154V256.712C199.154 255.416 199.106 254.348 199.01 253.508C198.914 252.644 198.722 251.96 198.434 251.456C198.17 250.928 197.786 250.568 197.282 250.376C196.802 250.16 196.166 250.052 195.374 250.052C194.606 250.052 193.814 250.172 192.998 250.412C192.206 250.628 191.594 250.844 191.162 251.06L190.55 251.384ZM233.198 243.14C229.598 243.14 227.798 244.496 227.798 247.208C227.798 247.952 227.882 248.576 228.05 249.08C228.242 249.56 228.566 249.98 229.022 250.34C229.502 250.676 230.15 250.964 230.966 251.204C231.782 251.444 232.826 251.708 234.098 251.996C235.37 252.284 236.438 252.596 237.302 252.932C238.19 253.268 238.91 253.688 239.462 254.192C240.014 254.696 240.41 255.308 240.65 256.028C240.914 256.748 241.046 257.624 241.046 258.656C241.046 263.768 238.394 266.324 233.09 266.324C232.202 266.324 231.206 266.264 230.102 266.144C229.022 266.048 227.822 265.904 226.502 265.712L225.206 265.532L225.494 263.228C228.782 263.66 231.266 263.876 232.946 263.876C236.498 263.876 238.274 262.208 238.274 258.872C238.274 258.2 238.178 257.636 237.986 257.18C237.818 256.7 237.518 256.304 237.086 255.992C236.678 255.656 236.114 255.38 235.394 255.164C234.698 254.924 233.81 254.696 232.73 254.48C231.338 254.192 230.15 253.868 229.166 253.508C228.182 253.148 227.378 252.704 226.754 252.176C226.13 251.624 225.674 250.964 225.386 250.196C225.122 249.428 224.99 248.492 224.99 247.388C224.99 242.924 227.666 240.692 233.018 240.692C234.77 240.692 236.87 240.872 239.318 241.232L240.542 241.412L240.29 243.752C238.61 243.56 237.182 243.416 236.006 243.32C234.83 243.2 233.894 243.14 233.198 243.14ZM252.097 247.64C252.889 247.64 254.233 247.784 256.129 248.072L256.993 248.18L256.885 250.376C254.989 250.16 253.573 250.052 252.637 250.052C251.629 250.052 250.777 250.16 250.081 250.376C249.409 250.592 248.869 250.964 248.461 251.492C248.077 252.02 247.801 252.728 247.633 253.616C247.465 254.48 247.381 255.572 247.381 256.892C247.381 258.212 247.453 259.328 247.597 260.24C247.741 261.128 248.005 261.848 248.389 262.4C248.797 262.952 249.337 263.348 250.009 263.588C250.705 263.828 251.593 263.948 252.673 263.948L256.921 263.624L257.029 265.856C255.901 266.024 254.917 266.144 254.077 266.216C253.261 266.312 252.577 266.36 252.025 266.36C250.633 266.36 249.457 266.192 248.497 265.856C247.561 265.496 246.805 264.944 246.229 264.2C245.653 263.432 245.233 262.448 244.969 261.248C244.729 260.048 244.609 258.596 244.609 256.892C244.609 255.188 244.741 253.748 245.005 252.572C245.293 251.396 245.737 250.448 246.337 249.728C246.937 248.984 247.705 248.456 248.641 248.144C249.601 247.808 250.753 247.64 252.097 247.64ZM273.753 253.436V262.652C273.825 263.54 274.521 264.068 275.841 264.236L275.733 266.36C273.837 266.36 272.409 265.88 271.449 264.92C269.313 265.88 267.153 266.36 264.969 266.36C263.313 266.36 262.053 265.892 261.189 264.956C260.325 264.02 259.893 262.676 259.893 260.924C259.893 259.172 260.337 257.888 261.225 257.072C262.113 256.232 263.505 255.716 265.401 255.524L271.053 254.984V253.436C271.053 252.212 270.789 251.336 270.261 250.808C269.733 250.28 269.013 250.016 268.101 250.016C267.141 250.016 266.157 250.052 265.149 250.124C264.165 250.172 263.157 250.256 262.125 250.376L261.009 250.484L260.901 248.432C263.469 247.904 265.809 247.64 267.921 247.64C269.961 247.64 271.437 248.108 272.349 249.044C273.285 249.956 273.753 251.42 273.753 253.436ZM262.665 260.78C262.665 262.988 263.577 264.092 265.401 264.092C267.009 264.092 268.617 263.816 270.225 263.264L271.053 262.976V257.036L265.725 257.54C264.645 257.636 263.865 257.948 263.385 258.476C262.905 259.004 262.665 259.772 262.665 260.78ZM281.78 251.384V266H279.08V248H281.744V249.26C283.688 248.18 285.548 247.64 287.324 247.64C288.524 247.64 289.508 247.796 290.276 248.108C291.068 248.396 291.692 248.888 292.148 249.584C292.628 250.28 292.952 251.192 293.12 252.32C293.312 253.448 293.408 254.84 293.408 256.496V266H290.744V256.568C290.744 255.32 290.684 254.276 290.564 253.436C290.468 252.596 290.276 251.924 289.988 251.42C289.7 250.916 289.304 250.568 288.8 250.376C288.296 250.16 287.648 250.052 286.856 250.052C286.088 250.052 285.272 250.172 284.408 250.412C283.568 250.628 282.92 250.844 282.464 251.06L281.78 251.384Z" fill="white"/>
<path opacity="0.2" d="M197 93.25H123.5V74.875C123.5 73.2505 124.145 71.6926 125.294 70.544C126.443 69.3953 128.001 68.75 129.625 68.75H169.966C171.588 68.7508 173.144 69.3951 174.292 70.5416L197 93.25Z" fill="white"/>
<path d="M198.12 88.5392L198.706 89.125H199.534H264.375C267.093 89.125 269.701 90.2049 271.623 92.1272C273.545 94.0494 274.625 96.6565 274.625 99.375V185.804C274.622 188.341 273.612 190.774 271.818 192.568C270.024 194.362 267.591 195.372 265.054 195.375H129.153C126.561 195.372 124.076 194.34 122.243 192.507C120.41 190.675 119.379 188.19 119.375 185.598V74.875C119.375 72.1565 120.455 69.5494 122.377 67.6272C124.299 65.7049 126.907 64.625 129.625 64.625L169.966 64.625L169.972 64.625C171.316 64.6207 172.648 64.8836 173.89 65.3985C175.131 65.9135 176.258 66.67 177.205 67.6244L177.211 67.63L198.12 88.5392ZM171.38 73.4608L170.794 72.875H169.966H129.625H127.625V74.875V87.125V89.125H129.625H182.216H187.044L183.63 85.7108L171.38 73.4608ZM264.375 187.125H266.375V185.125V99.375V97.375H264.375H129.625H127.625V99.375V185.125V187.125H129.625H264.375Z" fill="white" stroke="black" stroke-width="4"/>
</g>
<defs>
<filter id="filter0_d_92_131" x="0" y="0" width="393" height="311.02" filterUnits="userSpaceOnUse" color-interpolation-filters="sRGB">
<feFlood flood-opacity="0" result="BackgroundImageFix"/>
<feColorMatrix in="SourceAlpha" type="matrix" values="0 0 0 0 0 0 0 0 0 0 0 0 0 0 0 0 0 0 127 0" result="hardAlpha"/>
<feOffset dy="4"/>
<feGaussianBlur stdDeviation="2"/>
<feComposite in2="hardAlpha" operator="out"/>
<feColorMatrix type="matrix" values="0 0 0 0 0 0 0 0 0 0 0 0 0 0 0 0 0 0 0.25 0"/>
<feBlend mode="normal" in2="BackgroundImageFix" result="effect1_dropShadow_92_131"/>
<feBlend mode="normal" in="SourceGraphic" in2="effect1_dropShadow_92_131" result="shape"/>
</filter>
</defs>
</svg>
