<svg width="390" height="311" viewBox="0 0 390 311" fill="none" xmlns="http://www.w3.org/2000/svg">
<g filter="url(#filter0_d_91_110)">
<mask id="path-1-inside-1_91_110" fill="white">
<path d="M4 0H385.994V303H4V0Z"/>
</mask>
<path d="M4 0H385.994V303H4V0Z" fill="#172233"/>
<path d="M385.994 0H387.994V-2H385.994V0ZM4 2H385.994V-2H4V2ZM383.994 0V303H387.994V0H383.994Z" fill="black" mask="url(#path-1-inside-1_91_110)"/>
<path d="M117.308 266.36C115.436 266.36 113.876 266.108 112.628 265.604C111.38 265.1 110.372 264.332 109.604 263.3C108.836 262.268 108.284 260.948 107.948 259.34C107.636 257.732 107.48 255.836 107.48 253.652C107.48 251.468 107.648 249.572 107.984 247.964C108.32 246.332 108.872 244.988 109.64 243.932C110.408 242.852 111.416 242.048 112.664 241.52C113.936 240.992 115.484 240.728 117.308 240.728C119.156 240.728 120.704 240.992 121.952 241.52C123.2 242.048 124.208 242.84 124.976 243.896C125.768 244.952 126.332 246.296 126.668 247.928C127.004 249.536 127.172 251.444 127.172 253.652C127.172 256.724 126.86 259.172 126.236 260.996C125.612 262.82 124.544 264.176 123.032 265.064L126.092 269.996L123.5 271.22L120.332 266.036C119.54 266.252 118.532 266.36 117.308 266.36ZM110.324 253.652C110.324 255.476 110.432 257.036 110.648 258.332C110.864 259.628 111.236 260.696 111.764 261.536C112.292 262.352 113.012 262.952 113.924 263.336C114.836 263.72 115.976 263.912 117.344 263.912C118.712 263.912 119.84 263.732 120.728 263.372C121.64 262.988 122.348 262.4 122.852 261.608C123.38 260.792 123.752 259.736 123.968 258.44C124.184 257.144 124.292 255.572 124.292 253.724C124.292 251.876 124.184 250.292 123.968 248.972C123.752 247.652 123.368 246.56 122.816 245.696C122.288 244.832 121.568 244.196 120.656 243.788C119.768 243.38 118.652 243.176 117.308 243.176C115.964 243.176 114.836 243.38 113.924 243.788C113.036 244.196 112.316 244.832 111.764 245.696C111.236 246.536 110.864 247.616 110.648 248.936C110.432 250.256 110.324 251.828 110.324 253.652ZM143.017 262.616V248H145.717V266H143.017V264.74C141.217 265.82 139.441 266.36 137.689 266.36C136.465 266.36 135.457 266.216 134.665 265.928C133.873 265.64 133.249 265.148 132.793 264.452C132.361 263.756 132.049 262.844 131.857 261.716C131.689 260.564 131.605 259.124 131.605 257.396V248H134.305V257.36C134.305 258.656 134.353 259.736 134.449 260.6C134.545 261.44 134.725 262.112 134.989 262.616C135.253 263.12 135.637 263.468 136.141 263.66C136.645 263.852 137.293 263.948 138.085 263.948C138.877 263.948 139.681 263.84 140.497 263.624C141.313 263.384 141.937 263.156 142.369 262.94L143.017 262.616ZM153.61 266H150.91V248H153.61V266ZM153.61 243.932H150.91V240.8H153.61V243.932ZM165.517 247.64C166.309 247.64 167.653 247.784 169.549 248.072L170.413 248.18L170.305 250.376C168.409 250.16 166.993 250.052 166.057 250.052C165.049 250.052 164.197 250.16 163.501 250.376C162.829 250.592 162.289 250.964 161.881 251.492C161.497 252.02 161.221 252.728 161.053 253.616C160.885 254.48 160.801 255.572 160.801 256.892C160.801 258.212 160.873 259.328 161.017 260.24C161.161 261.128 161.425 261.848 161.809 262.4C162.217 262.952 162.757 263.348 163.429 263.588C164.125 263.828 165.013 263.948 166.093 263.948L170.341 263.624L170.449 265.856C169.321 266.024 168.337 266.144 167.497 266.216C166.681 266.312 165.997 266.36 165.445 266.36C164.053 266.36 162.877 266.192 161.917 265.856C160.981 265.496 160.225 264.944 159.649 264.2C159.073 263.432 158.653 262.448 158.389 261.248C158.149 260.048 158.029 258.596 158.029 256.892C158.029 255.188 158.161 253.748 158.425 252.572C158.713 251.396 159.157 250.448 159.757 249.728C160.357 248.984 161.125 248.456 162.061 248.144C163.021 247.808 164.173 247.64 165.517 247.64ZM177.165 257.756V266H174.465V240.152H177.165V255.416L179.973 255.272L185.121 248H188.181L182.313 256.28L188.433 266H185.373L180.009 257.648L177.165 257.756ZM206.946 243.14C203.346 243.14 201.546 244.496 201.546 247.208C201.546 247.952 201.63 248.576 201.798 249.08C201.99 249.56 202.314 249.98 202.77 250.34C203.25 250.676 203.898 250.964 204.714 251.204C205.53 251.444 206.574 251.708 207.846 251.996C209.118 252.284 210.186 252.596 211.05 252.932C211.938 253.268 212.658 253.688 213.21 254.192C213.762 254.696 214.158 255.308 214.398 256.028C214.662 256.748 214.794 257.624 214.794 258.656C214.794 263.768 212.142 266.324 206.838 266.324C205.95 266.324 204.954 266.264 203.85 266.144C202.77 266.048 201.57 265.904 200.25 265.712L198.954 265.532L199.242 263.228C202.53 263.66 205.014 263.876 206.694 263.876C210.246 263.876 212.022 262.208 212.022 258.872C212.022 258.2 211.926 257.636 211.734 257.18C211.566 256.7 211.266 256.304 210.834 255.992C210.426 255.656 209.862 255.38 209.142 255.164C208.446 254.924 207.558 254.696 206.478 254.48C205.086 254.192 203.898 253.868 202.914 253.508C201.93 253.148 201.126 252.704 200.502 252.176C199.878 251.624 199.422 250.964 199.134 250.196C198.87 249.428 198.738 248.492 198.738 247.388C198.738 242.924 201.414 240.692 206.766 240.692C208.518 240.692 210.618 240.872 213.066 241.232L214.29 241.412L214.038 243.752C212.358 243.56 210.93 243.416 209.754 243.32C208.578 243.2 207.642 243.14 206.946 243.14ZM225.845 247.64C226.637 247.64 227.981 247.784 229.877 248.072L230.741 248.18L230.633 250.376C228.737 250.16 227.321 250.052 226.385 250.052C225.377 250.052 224.525 250.16 223.829 250.376C223.157 250.592 222.617 250.964 222.209 251.492C221.825 252.02 221.549 252.728 221.381 253.616C221.213 254.48 221.129 255.572 221.129 256.892C221.129 258.212 221.201 259.328 221.345 260.24C221.489 261.128 221.753 261.848 222.137 262.4C222.545 262.952 223.085 263.348 223.757 263.588C224.453 263.828 225.341 263.948 226.421 263.948L230.669 263.624L230.777 265.856C229.649 266.024 228.665 266.144 227.825 266.216C227.009 266.312 226.325 266.36 225.773 266.36C224.381 266.36 223.205 266.192 222.245 265.856C221.309 265.496 220.553 264.944 219.977 264.2C219.401 263.432 218.981 262.448 218.717 261.248C218.477 260.048 218.357 258.596 218.357 256.892C218.357 255.188 218.489 253.748 218.753 252.572C219.041 251.396 219.485 250.448 220.085 249.728C220.685 248.984 221.453 248.456 222.389 248.144C223.349 247.808 224.501 247.64 225.845 247.64ZM247.501 253.436V262.652C247.573 263.54 248.269 264.068 249.589 264.236L249.481 266.36C247.585 266.36 246.157 265.88 245.197 264.92C243.061 265.88 240.901 266.36 238.717 266.36C237.061 266.36 235.801 265.892 234.937 264.956C234.073 264.02 233.641 262.676 233.641 260.924C233.641 259.172 234.085 257.888 234.973 257.072C235.861 256.232 237.253 255.716 239.149 255.524L244.801 254.984V253.436C244.801 252.212 244.537 251.336 244.009 250.808C243.481 250.28 242.761 250.016 241.849 250.016C240.889 250.016 239.905 250.052 238.897 250.124C237.913 250.172 236.905 250.256 235.873 250.376L234.757 250.484L234.649 248.432C237.217 247.904 239.557 247.64 241.669 247.64C243.709 247.64 245.185 248.108 246.097 249.044C247.033 249.956 247.501 251.42 247.501 253.436ZM236.413 260.78C236.413 262.988 237.325 264.092 239.149 264.092C240.757 264.092 242.365 263.816 243.973 263.264L244.801 262.976V257.036L239.473 257.54C238.393 257.636 237.613 257.948 237.133 258.476C236.653 259.004 236.413 259.772 236.413 260.78ZM255.528 251.384V266H252.828V248H255.492V249.26C257.436 248.18 259.296 247.64 261.072 247.64C262.272 247.64 263.256 247.796 264.024 248.108C264.816 248.396 265.44 248.888 265.896 249.584C266.376 250.28 266.7 251.192 266.868 252.32C267.06 253.448 267.156 254.84 267.156 256.496V266H264.492V256.568C264.492 255.32 264.432 254.276 264.312 253.436C264.216 252.596 264.024 251.924 263.736 251.42C263.448 250.916 263.052 250.568 262.548 250.376C262.044 250.16 261.396 250.052 260.604 250.052C259.836 250.052 259.02 250.172 258.156 250.412C257.316 250.628 256.668 250.844 256.212 251.06L255.528 251.384Z" fill="white"/>
<path d="M112 200H194.5C203.364 200 212.142 198.254 220.331 194.862C228.521 191.47 235.962 186.498 242.23 180.23C248.498 173.962 253.47 166.521 256.862 158.331C260.254 150.142 262 141.364 262 132.5C262 123.636 260.254 114.858 256.862 106.669C253.47 98.4794 248.498 91.0382 242.23 84.7703C235.962 78.5023 228.521 73.5303 220.331 70.1381C212.142 66.7459 203.364 65 194.5 65C159.753 65 130.728 91.25 127 125M235.75 76.25L243.25 68.75M138.25 68.75L145.75 76.25" stroke="white" stroke-width="4" stroke-linecap="round" stroke-linejoin="round"/>
<path d="M220.75 102.5L198.7 124.55C197.662 123.476 196.421 122.618 195.048 122.029C193.676 121.439 192.2 121.129 190.706 121.116C189.212 121.103 187.731 121.388 186.348 121.953C184.965 122.519 183.709 123.354 182.653 124.411C181.597 125.467 180.761 126.723 180.196 128.106C179.63 129.488 179.345 130.969 179.358 132.463C179.371 133.957 179.682 135.433 180.271 136.806C180.861 138.178 181.718 139.42 182.793 140.457C184.903 142.568 187.765 143.754 190.75 143.754C193.735 143.754 196.597 142.568 198.707 140.457C200.818 138.347 202.004 135.485 202.004 132.5C202.004 129.515 200.818 126.653 198.707 124.543M190.75 61.25V50M175.75 50H205.75M112 147.5H134.5M112 177.5H149.5" stroke="white" stroke-width="4" stroke-linecap="round" stroke-linejoin="round"/>
</g>
<defs>
<filter id="filter0_d_91_110" x="0" y="0" width="389.994" height="311" filterUnits="userSpaceOnUse" color-interpolation-filters="sRGB">
<feFlood flood-opacity="0" result="BackgroundImageFix"/>
<feColorMatrix in="SourceAlpha" type="matrix" values="0 0 0 0 0 0 0 0 0 0 0 0 0 0 0 0 0 0 127 0" result="hardAlpha"/>
<feOffset dy="4"/>
<feGaussianBlur stdDeviation="2"/>
<feComposite in2="hardAlpha" operator="out"/>
<feColorMatrix type="matrix" values="0 0 0 0 0 0 0 0 0 0 0 0 0 0 0 0 0 0 0.25 0"/>
<feBlend mode="normal" in2="BackgroundImageFix" result="effect1_dropShadow_91_110"/>
<feBlend mode="normal" in="SourceGraphic" in2="effect1_dropShadow_91_110" result="shape"/>
</filter>
</defs>
</svg>
