<svg width="390" height="311" viewBox="0 0 390 311" fill="none" xmlns="http://www.w3.org/2000/svg">
<g filter="url(#filter0_d_92_117)">
<mask id="path-1-inside-1_92_117" fill="white">
<path d="M4 0H385.994V303H4V0Z"/>
</mask>
<path d="M4 0H385.994V303H4V0Z" fill="#172233"/>
<path d="M385.994 0H387.994V-2H385.994V0ZM4 2H385.994V-2H4V2ZM383.994 0V303H387.994V0H383.994Z" fill="black" mask="url(#path-1-inside-1_92_117)"/>
<path d="M133.227 266H130.455V241.088H145.359V243.536H133.227V253.256H143.487V255.704H133.227V266ZM160.168 262.616V248H162.868V266H160.168V264.74C158.368 265.82 156.592 266.36 154.84 266.36C153.616 266.36 152.608 266.216 151.816 265.928C151.024 265.64 150.4 265.148 149.944 264.452C149.512 263.756 149.2 262.844 149.008 261.716C148.84 260.564 148.756 259.124 148.756 257.396V248H151.456V257.36C151.456 258.656 151.504 259.736 151.6 260.6C151.696 261.44 151.876 262.112 152.14 262.616C152.404 263.12 152.788 263.468 153.292 263.66C153.796 263.852 154.444 263.948 155.236 263.948C156.028 263.948 156.832 263.84 157.648 263.624C158.464 263.384 159.088 263.156 159.52 262.94L160.168 262.616ZM170.977 266H168.277V240.152H170.977V266ZM179.309 266H176.609V240.152H179.309V266ZM199.979 243.14C196.379 243.14 194.579 244.496 194.579 247.208C194.579 247.952 194.663 248.576 194.831 249.08C195.023 249.56 195.347 249.98 195.803 250.34C196.283 250.676 196.931 250.964 197.747 251.204C198.563 251.444 199.607 251.708 200.879 251.996C202.151 252.284 203.219 252.596 204.083 252.932C204.971 253.268 205.691 253.688 206.243 254.192C206.795 254.696 207.191 255.308 207.431 256.028C207.695 256.748 207.827 257.624 207.827 258.656C207.827 263.768 205.175 266.324 199.871 266.324C198.983 266.324 197.987 266.264 196.883 266.144C195.803 266.048 194.603 265.904 193.283 265.712L191.987 265.532L192.275 263.228C195.563 263.66 198.047 263.876 199.727 263.876C203.279 263.876 205.055 262.208 205.055 258.872C205.055 258.2 204.959 257.636 204.767 257.18C204.599 256.7 204.299 256.304 203.867 255.992C203.459 255.656 202.895 255.38 202.175 255.164C201.479 254.924 200.591 254.696 199.511 254.48C198.119 254.192 196.931 253.868 195.947 253.508C194.963 253.148 194.159 252.704 193.535 252.176C192.911 251.624 192.455 250.964 192.167 250.196C191.903 249.428 191.771 248.492 191.771 247.388C191.771 242.924 194.447 240.692 199.799 240.692C201.551 240.692 203.651 240.872 206.099 241.232L207.323 241.412L207.071 243.752C205.391 243.56 203.963 243.416 202.787 243.32C201.611 243.2 200.675 243.14 199.979 243.14ZM218.879 247.64C219.671 247.64 221.015 247.784 222.911 248.072L223.775 248.18L223.667 250.376C221.771 250.16 220.355 250.052 219.419 250.052C218.411 250.052 217.559 250.16 216.863 250.376C216.191 250.592 215.651 250.964 215.243 251.492C214.859 252.02 214.583 252.728 214.415 253.616C214.247 254.48 214.163 255.572 214.163 256.892C214.163 258.212 214.235 259.328 214.379 260.24C214.523 261.128 214.787 261.848 215.171 262.4C215.579 262.952 216.119 263.348 216.791 263.588C217.487 263.828 218.375 263.948 219.455 263.948L223.703 263.624L223.811 265.856C222.683 266.024 221.699 266.144 220.859 266.216C220.043 266.312 219.359 266.36 218.807 266.36C217.415 266.36 216.239 266.192 215.279 265.856C214.343 265.496 213.587 264.944 213.011 264.2C212.435 263.432 212.015 262.448 211.751 261.248C211.511 260.048 211.391 258.596 211.391 256.892C211.391 255.188 211.523 253.748 211.787 252.572C212.075 251.396 212.519 250.448 213.119 249.728C213.719 248.984 214.487 248.456 215.423 248.144C216.383 247.808 217.535 247.64 218.879 247.64ZM240.534 253.436V262.652C240.606 263.54 241.302 264.068 242.622 264.236L242.514 266.36C240.618 266.36 239.19 265.88 238.23 264.92C236.094 265.88 233.934 266.36 231.75 266.36C230.094 266.36 228.834 265.892 227.97 264.956C227.106 264.02 226.674 262.676 226.674 260.924C226.674 259.172 227.118 257.888 228.006 257.072C228.894 256.232 230.286 255.716 232.182 255.524L237.834 254.984V253.436C237.834 252.212 237.57 251.336 237.042 250.808C236.514 250.28 235.794 250.016 234.882 250.016C233.922 250.016 232.938 250.052 231.93 250.124C230.946 250.172 229.938 250.256 228.906 250.376L227.79 250.484L227.682 248.432C230.25 247.904 232.59 247.64 234.702 247.64C236.742 247.64 238.218 248.108 239.13 249.044C240.066 249.956 240.534 251.42 240.534 253.436ZM229.446 260.78C229.446 262.988 230.358 264.092 232.182 264.092C233.79 264.092 235.398 263.816 237.006 263.264L237.834 262.976V257.036L232.506 257.54C231.426 257.636 230.646 257.948 230.166 258.476C229.686 259.004 229.446 259.772 229.446 260.78ZM248.562 251.384V266H245.862V248H248.526V249.26C250.47 248.18 252.33 247.64 254.106 247.64C255.306 247.64 256.29 247.796 257.058 248.108C257.85 248.396 258.474 248.888 258.93 249.584C259.41 250.28 259.734 251.192 259.902 252.32C260.094 253.448 260.19 254.84 260.19 256.496V266H257.526V256.568C257.526 255.32 257.466 254.276 257.346 253.436C257.25 252.596 257.058 251.924 256.77 251.42C256.482 250.916 256.086 250.568 255.582 250.376C255.078 250.16 254.43 250.052 253.638 250.052C252.87 250.052 252.054 250.172 251.19 250.412C250.35 250.628 249.702 250.844 249.246 251.06L248.562 251.384Z" fill="white"/>
<mask id="path-4-inside-2_92_117" fill="white">
<path d="M101.66 206.7C100.298 206.7 99.1597 206.242 98.2437 205.326C97.3277 204.41 96.8729 203.278 96.8792 201.929C96.8856 200.581 97.3436 199.445 98.2532 198.523C99.1629 197.6 100.295 197.142 101.65 197.149H287.35C288.705 197.149 289.837 197.607 290.747 198.523C291.656 199.439 292.114 200.571 292.121 201.92C292.127 203.268 291.669 204.404 290.747 205.326C289.824 206.248 288.692 206.706 287.35 206.7H101.66ZM124.044 187.617C119.649 187.617 115.982 186.144 113.043 183.199C110.104 180.254 108.631 176.586 108.625 172.197V78.9847C108.625 74.5955 110.098 70.9284 113.043 67.9832C115.988 65.038 119.652 63.5685 124.035 63.5749H264.965C269.354 63.5749 273.018 65.0443 275.957 67.9832C278.896 70.922 280.369 74.5892 280.375 78.9847V172.207C280.375 176.596 278.902 180.26 275.957 183.199C273.012 186.138 269.345 187.61 264.956 187.617H124.044ZM124.044 178.075H264.965C266.428 178.075 267.774 177.461 269.001 176.233C270.229 175.006 270.84 173.66 270.833 172.197V78.9847C270.833 77.5216 270.223 76.1763 269.001 74.9486C267.774 73.7209 266.425 73.107 264.956 73.107H124.044C122.575 73.107 121.226 73.7209 119.999 74.9486C118.777 76.1699 118.167 77.5153 118.167 78.9847V172.207C118.167 173.67 118.777 175.012 119.999 176.233C121.22 177.455 122.565 178.069 124.035 178.075"/>
</mask>
<path d="M101.66 206.7C100.298 206.7 99.1597 206.242 98.2437 205.326C97.3277 204.41 96.8729 203.278 96.8792 201.929C96.8856 200.581 97.3436 199.445 98.2532 198.523C99.1629 197.6 100.295 197.142 101.65 197.149H287.35C288.705 197.149 289.837 197.607 290.747 198.523C291.656 199.439 292.114 200.571 292.121 201.92C292.127 203.268 291.669 204.404 290.747 205.326C289.824 206.248 288.692 206.706 287.35 206.7H101.66ZM124.044 187.617C119.649 187.617 115.982 186.144 113.043 183.199C110.104 180.254 108.631 176.586 108.625 172.197V78.9847C108.625 74.5955 110.098 70.9284 113.043 67.9832C115.988 65.038 119.652 63.5685 124.035 63.5749H264.965C269.354 63.5749 273.018 65.0443 275.957 67.9832C278.896 70.922 280.369 74.5892 280.375 78.9847V172.207C280.375 176.596 278.902 180.26 275.957 183.199C273.012 186.138 269.345 187.61 264.956 187.617H124.044ZM124.044 178.075H264.965C266.428 178.075 267.774 177.461 269.001 176.233C270.229 175.006 270.84 173.66 270.833 172.197V78.9847C270.833 77.5216 270.223 76.1763 269.001 74.9486C267.774 73.7209 266.425 73.107 264.956 73.107H124.044C122.575 73.107 121.226 73.7209 119.999 74.9486C118.777 76.1699 118.167 77.5153 118.167 78.9847V172.207C118.167 173.67 118.777 175.012 119.999 176.233C121.22 177.455 122.565 178.069 124.035 178.075" fill="white"/>
<path d="M119.667 178.075V73.1166H116.667V178.075H119.667ZM101.65 197.149L101.636 200.149H101.65V197.149ZM287.35 206.7L287.364 203.7L287.357 203.7H287.35V206.7ZM108.625 172.197H105.625L105.625 172.202L108.625 172.197ZM124.035 63.5749L124.03 66.5749H124.035V63.5749ZM280.375 78.9847H283.375V78.9804L280.375 78.9847ZM264.956 187.617V190.617L264.96 190.617L264.956 187.617ZM270.833 172.197H267.833L267.833 172.21L270.833 172.197ZM269.001 74.9486L271.128 72.8328L271.123 72.8273L269.001 74.9486ZM101.66 203.7C101.049 203.7 100.687 203.527 100.365 203.205L96.1224 207.447C97.632 208.957 99.5477 209.7 101.66 209.7V203.7ZM100.365 203.205C100.041 202.88 99.8764 202.528 99.8792 201.943L93.8792 201.915C93.8693 204.027 94.6148 205.94 96.1224 207.447L100.365 203.205ZM99.8792 201.943C99.882 201.342 100.054 200.969 100.389 200.629L96.1172 196.416C94.6328 197.921 93.8891 199.819 93.8792 201.915L99.8792 201.943ZM100.389 200.629C100.703 200.311 101.047 200.146 101.636 200.149L101.664 194.149C99.543 194.139 97.6225 194.89 96.1172 196.416L100.389 200.629ZM101.65 200.149H287.35V194.149H101.65V200.149ZM287.35 200.149C287.95 200.149 288.302 200.318 288.618 200.637L292.876 196.409C291.372 194.895 289.46 194.149 287.35 194.149V200.149ZM288.618 200.637C288.946 200.967 289.118 201.333 289.121 201.934L295.121 201.905C295.111 199.809 294.367 197.91 292.876 196.409L288.618 200.637ZM289.121 201.934C289.124 202.512 288.961 202.869 288.625 203.205L292.868 207.447C294.378 205.938 295.131 204.024 295.121 201.905L289.121 201.934ZM288.625 203.205C288.287 203.543 287.932 203.703 287.364 203.7L287.336 209.7C289.453 209.71 291.362 208.954 292.868 207.447L288.625 203.205ZM287.35 203.7H101.66V209.7H287.35V203.7ZM124.044 184.617C120.396 184.617 117.508 183.427 115.166 181.08L110.919 185.318C114.455 188.861 118.902 190.617 124.044 190.617V184.617ZM115.166 181.08C112.821 178.729 111.63 175.837 111.625 172.193L105.625 172.202C105.632 177.335 107.387 181.778 110.919 185.318L115.166 181.08ZM111.625 172.197V78.9847H105.625V172.197H111.625ZM111.625 78.9847C111.625 75.3436 112.814 72.4543 115.164 70.1045L110.921 65.8618C107.381 69.4024 105.625 73.8475 105.625 78.9847H111.625ZM115.164 70.1045C117.514 67.7549 120.398 66.5696 124.03 66.5749L124.039 60.5749C118.906 60.5675 114.462 62.321 110.921 65.8618L115.164 70.1045ZM124.035 66.5749H264.965V60.5749H124.035V66.5749ZM264.965 66.5749C268.608 66.5749 271.494 67.7624 273.836 70.1045L278.079 65.8618C274.543 62.3263 270.1 60.5749 264.965 60.5749V66.5749ZM273.836 70.1045C276.178 72.4468 277.37 75.3369 277.375 78.989L283.375 78.9804C283.368 73.8415 281.614 69.3971 278.079 65.8618L273.836 70.1045ZM277.375 78.9847V172.207H283.375V78.9847H277.375ZM277.375 172.207C277.375 175.848 276.186 178.733 273.838 181.075L278.076 185.322C281.619 181.787 283.375 177.344 283.375 172.207H277.375ZM273.838 181.075C271.488 183.421 268.596 184.611 264.951 184.617L264.96 190.617C270.094 190.609 274.536 188.855 278.076 185.322L273.838 181.075ZM264.956 184.617H124.044V190.617H264.956V184.617ZM124.044 181.075H264.965V175.075H124.044V181.075ZM264.965 181.075C267.37 181.075 269.445 180.032 271.123 178.355L266.88 174.112C266.102 174.89 265.486 175.075 264.965 175.075V181.075ZM271.123 178.355C272.803 176.675 273.844 174.595 273.833 172.184L267.833 172.21C267.836 172.726 267.656 173.337 266.88 174.112L271.123 178.355ZM273.833 172.197V78.9847H267.833V172.197H273.833ZM273.833 78.9847C273.833 76.5849 272.798 74.5117 271.128 72.8328L266.875 77.0644C267.647 77.8408 267.833 78.4584 267.833 78.9847H273.833ZM271.123 72.8273C269.442 71.1468 267.364 70.107 264.956 70.107V76.107C265.486 76.107 266.105 76.2949 266.88 77.0699L271.123 72.8273ZM264.956 70.107H124.044V76.107H264.956V70.107ZM124.044 70.107C121.636 70.107 119.558 71.1468 117.877 72.8273L122.12 77.0699C122.895 76.2949 123.514 76.107 124.044 76.107V70.107ZM117.877 72.8273C116.2 74.5049 115.167 76.5809 115.167 78.9847H121.167C121.167 78.4497 121.355 77.835 122.12 77.0699L117.877 72.8273ZM115.167 78.9847V172.207H121.167V78.9847H115.167ZM115.167 172.207C115.167 174.608 116.203 176.68 117.877 178.355L122.12 174.112C121.352 173.344 121.167 172.732 121.167 172.207H115.167ZM117.877 178.355C119.553 180.03 121.623 181.064 124.022 181.075L124.048 175.075C123.507 175.073 122.887 174.88 122.12 174.112L117.877 178.355Z" fill="black" mask="url(#path-4-inside-2_92_117)"/>
</g>
<defs>
<filter id="filter0_d_92_117" x="0" y="0" width="389.994" height="311" filterUnits="userSpaceOnUse" color-interpolation-filters="sRGB">
<feFlood flood-opacity="0" result="BackgroundImageFix"/>
<feColorMatrix in="SourceAlpha" type="matrix" values="0 0 0 0 0 0 0 0 0 0 0 0 0 0 0 0 0 0 127 0" result="hardAlpha"/>
<feOffset dy="4"/>
<feGaussianBlur stdDeviation="2"/>
<feComposite in2="hardAlpha" operator="out"/>
<feColorMatrix type="matrix" values="0 0 0 0 0 0 0 0 0 0 0 0 0 0 0 0 0 0 0.25 0"/>
<feBlend mode="normal" in2="BackgroundImageFix" result="effect1_dropShadow_92_117"/>
<feBlend mode="normal" in="SourceGraphic" in2="effect1_dropShadow_92_117" result="shape"/>
</filter>
</defs>
</svg>
