<svg width="390" height="311" viewBox="0 0 390 311" fill="none" xmlns="http://www.w3.org/2000/svg">
<g filter="url(#filter0_d_92_124)">
<mask id="path-1-inside-1_92_124" fill="white">
<path d="M4 0H385.994V303H4V0Z"/>
</mask>
<path d="M4 0H385.994V303H4V0Z" fill="#172233"/>
<path d="M385.994 0H386.994V-2H385.994V0ZM4 2H385.994V-2H4V2ZM384.994 0V303H386.994V0H384.994Z" fill="black" mask="url(#path-1-inside-1_92_124)"/>
<path d="M75.0032 256.46H67.9472V266H65.1752V241.088H74.3912C77.0552 241.088 79.0472 241.7 80.3672 242.924C81.6872 244.124 82.3472 246.032 82.3472 248.648C82.3472 252.512 80.8232 254.924 77.7752 255.884L82.5632 266H79.5032L75.0032 256.46ZM67.9472 254.012H74.4272C77.8112 254.012 79.5032 252.26 79.5032 248.756C79.5032 245.276 77.7992 243.536 74.3912 243.536H67.9472V254.012ZM99.1308 263.768L100.175 263.66L100.247 265.784C98.8788 265.976 97.6068 266.12 96.4308 266.216C95.2788 266.312 94.2108 266.36 93.2268 266.36C90.6348 266.36 88.7988 265.616 87.7188 264.128C86.6388 262.616 86.0988 260.276 86.0988 257.108C86.0988 250.796 88.6068 247.64 93.6228 247.64C96.0708 247.64 97.8828 248.324 99.0588 249.692C100.259 251.036 100.859 253.16 100.859 256.064L100.715 258.116H88.8348C88.8348 260.132 89.1948 261.62 89.9148 262.58C90.6348 263.516 91.8948 263.984 93.6948 263.984C95.4948 263.984 97.3068 263.912 99.1308 263.768ZM88.7988 255.956H98.1588C98.1588 253.748 97.7988 252.188 97.0788 251.276C96.3828 250.364 95.2428 249.908 93.6588 249.908C92.0508 249.908 90.8388 250.388 90.0228 251.348C89.2308 252.308 88.8228 253.844 88.7988 255.956ZM107.767 251.384V266H105.067V248H107.731V249.26C109.531 248.18 111.283 247.64 112.987 247.64C115.219 247.64 116.779 248.252 117.667 249.476C118.075 249.236 118.543 249.008 119.071 248.792C119.599 248.552 120.151 248.348 120.727 248.18C121.327 248.012 121.915 247.88 122.491 247.784C123.067 247.688 123.595 247.64 124.075 247.64C125.275 247.64 126.259 247.796 127.027 248.108C127.819 248.396 128.443 248.888 128.899 249.584C129.379 250.256 129.703 251.168 129.871 252.32C130.063 253.448 130.159 254.84 130.159 256.496V266H127.459V256.568C127.459 255.32 127.411 254.276 127.315 253.436C127.219 252.596 127.027 251.924 126.739 251.42C126.475 250.916 126.091 250.568 125.587 250.376C125.107 250.16 124.471 250.052 123.679 250.052C122.887 250.052 122.071 250.172 121.231 250.412C120.391 250.628 119.743 250.844 119.287 251.06L118.603 251.384C118.915 252.152 119.071 253.904 119.071 256.64V266H116.371V256.712C116.371 255.416 116.323 254.348 116.227 253.508C116.131 252.644 115.939 251.96 115.651 251.456C115.387 250.928 115.003 250.568 114.499 250.376C114.019 250.16 113.383 250.052 112.591 250.052C111.823 250.052 111.031 250.172 110.215 250.412C109.423 250.628 108.811 250.844 108.379 251.06L107.767 251.384ZM134.368 256.964C134.368 255.308 134.5 253.892 134.764 252.716C135.052 251.54 135.508 250.58 136.132 249.836C136.756 249.068 137.56 248.516 138.544 248.18C139.528 247.82 140.716 247.64 142.108 247.64C143.5 247.64 144.676 247.82 145.636 248.18C146.62 248.516 147.412 249.068 148.012 249.836C148.636 250.58 149.08 251.54 149.344 252.716C149.632 253.892 149.776 255.308 149.776 256.964C149.776 258.62 149.644 260.036 149.38 261.212C149.14 262.388 148.72 263.36 148.12 264.128C147.52 264.896 146.728 265.46 145.744 265.82C144.76 266.18 143.536 266.36 142.072 266.36C140.608 266.36 139.384 266.18 138.4 265.82C137.416 265.46 136.624 264.896 136.024 264.128C135.424 263.36 134.992 262.388 134.728 261.212C134.488 260.036 134.368 258.62 134.368 256.964ZM137.14 256.892C137.14 258.212 137.2 259.328 137.32 260.24C137.464 261.128 137.716 261.86 138.076 262.436C138.46 262.988 138.976 263.396 139.624 263.66C140.272 263.9 141.1 264.02 142.108 264.02C143.116 264.02 143.932 263.9 144.556 263.66C145.204 263.42 145.708 263.024 146.068 262.472C146.428 261.896 146.668 261.164 146.788 260.276C146.932 259.364 147.004 258.248 147.004 256.928C147.004 255.608 146.92 254.504 146.752 253.616C146.608 252.728 146.344 252.02 145.96 251.492C145.576 250.94 145.072 250.556 144.448 250.34C143.824 250.1 143.044 249.98 142.108 249.98C141.172 249.98 140.38 250.1 139.732 250.34C139.108 250.556 138.604 250.94 138.22 251.492C137.836 252.02 137.56 252.728 137.392 253.616C137.224 254.48 137.14 255.572 137.14 256.892ZM157.564 266L152.488 248H155.368L159.58 263.66H160.912L165.268 248H168.04L162.964 266H157.564ZM184.22 253.436V262.652C184.292 263.54 184.988 264.068 186.308 264.236L186.2 266.36C184.304 266.36 182.876 265.88 181.916 264.92C179.78 265.88 177.62 266.36 175.436 266.36C173.78 266.36 172.52 265.892 171.656 264.956C170.792 264.02 170.36 262.676 170.36 260.924C170.36 259.172 170.804 257.888 171.692 257.072C172.58 256.232 173.972 255.716 175.868 255.524L181.52 254.984V253.436C181.52 252.212 181.256 251.336 180.728 250.808C180.2 250.28 179.48 250.016 178.568 250.016C177.608 250.016 176.624 250.052 175.616 250.124C174.632 250.172 173.624 250.256 172.592 250.376L171.476 250.484L171.368 248.432C173.936 247.904 176.276 247.64 178.388 247.64C180.428 247.64 181.904 248.108 182.816 249.044C183.752 249.956 184.22 251.42 184.22 253.436ZM173.132 260.78C173.132 262.988 174.044 264.092 175.868 264.092C177.476 264.092 179.084 263.816 180.692 263.264L181.52 262.976V257.036L176.192 257.54C175.112 257.636 174.332 257.948 173.852 258.476C173.372 259.004 173.132 259.772 173.132 260.78ZM197.503 247.64C198.727 247.64 199.747 247.808 200.563 248.144C201.403 248.456 202.075 248.984 202.579 249.728C203.107 250.448 203.479 251.408 203.695 252.608C203.935 253.784 204.055 255.236 204.055 256.964C204.055 258.692 203.911 260.156 203.623 261.356C203.359 262.556 202.891 263.528 202.219 264.272C201.571 264.992 200.707 265.52 199.627 265.856C198.547 266.192 197.191 266.36 195.559 266.36C195.055 266.36 194.383 266.336 193.543 266.288C192.727 266.24 191.731 266.168 190.555 266.072L189.547 265.964V240.152H192.211V248.9C194.083 248.06 195.847 247.64 197.503 247.64ZM195.523 263.948C196.699 263.948 197.659 263.828 198.403 263.588C199.171 263.324 199.771 262.916 200.203 262.364C200.635 261.788 200.923 261.056 201.067 260.168C201.235 259.28 201.319 258.2 201.319 256.928C201.319 255.656 201.247 254.588 201.103 253.724C200.959 252.836 200.719 252.128 200.383 251.6C200.071 251.048 199.651 250.652 199.123 250.412C198.619 250.172 197.983 250.052 197.215 250.052C195.799 250.052 194.371 250.316 192.931 250.844L192.211 251.096V263.768C192.979 263.816 193.639 263.864 194.191 263.912C194.743 263.936 195.187 263.948 195.523 263.948ZM211.412 266H208.712V240.152H211.412V266ZM229.068 263.768L230.112 263.66L230.184 265.784C228.816 265.976 227.544 266.12 226.368 266.216C225.216 266.312 224.148 266.36 223.164 266.36C220.572 266.36 218.736 265.616 217.656 264.128C216.576 262.616 216.036 260.276 216.036 257.108C216.036 250.796 218.544 247.64 223.56 247.64C226.008 247.64 227.82 248.324 228.996 249.692C230.196 251.036 230.796 253.16 230.796 256.064L230.652 258.116H218.772C218.772 260.132 219.132 261.62 219.852 262.58C220.572 263.516 221.832 263.984 223.632 263.984C225.432 263.984 227.244 263.912 229.068 263.768ZM218.736 255.956H228.096C228.096 253.748 227.736 252.188 227.016 251.276C226.32 250.364 225.18 249.908 223.596 249.908C221.988 249.908 220.776 250.388 219.96 251.348C219.168 252.308 218.76 253.844 218.736 255.956ZM250.258 243.14C246.658 243.14 244.858 244.496 244.858 247.208C244.858 247.952 244.942 248.576 245.11 249.08C245.302 249.56 245.626 249.98 246.082 250.34C246.562 250.676 247.21 250.964 248.026 251.204C248.842 251.444 249.886 251.708 251.158 251.996C252.43 252.284 253.498 252.596 254.362 252.932C255.25 253.268 255.97 253.688 256.522 254.192C257.074 254.696 257.47 255.308 257.71 256.028C257.974 256.748 258.106 257.624 258.106 258.656C258.106 263.768 255.454 266.324 250.15 266.324C249.262 266.324 248.266 266.264 247.162 266.144C246.082 266.048 244.882 265.904 243.562 265.712L242.266 265.532L242.554 263.228C245.842 263.66 248.326 263.876 250.006 263.876C253.558 263.876 255.334 262.208 255.334 258.872C255.334 258.2 255.238 257.636 255.046 257.18C254.878 256.7 254.578 256.304 254.146 255.992C253.738 255.656 253.174 255.38 252.454 255.164C251.758 254.924 250.87 254.696 249.79 254.48C248.398 254.192 247.21 253.868 246.226 253.508C245.242 253.148 244.438 252.704 243.814 252.176C243.19 251.624 242.734 250.964 242.446 250.196C242.182 249.428 242.05 248.492 242.05 247.388C242.05 242.924 244.726 240.692 250.078 240.692C251.83 240.692 253.93 240.872 256.378 241.232L257.602 241.412L257.35 243.752C255.67 243.56 254.242 243.416 253.066 243.32C251.89 243.2 250.954 243.14 250.258 243.14ZM269.158 247.64C269.95 247.64 271.294 247.784 273.19 248.072L274.054 248.18L273.946 250.376C272.05 250.16 270.634 250.052 269.698 250.052C268.69 250.052 267.838 250.16 267.142 250.376C266.47 250.592 265.93 250.964 265.522 251.492C265.138 252.02 264.862 252.728 264.694 253.616C264.526 254.48 264.442 255.572 264.442 256.892C264.442 258.212 264.514 259.328 264.658 260.24C264.802 261.128 265.066 261.848 265.45 262.4C265.858 262.952 266.398 263.348 267.07 263.588C267.766 263.828 268.654 263.948 269.734 263.948L273.982 263.624L274.09 265.856C272.962 266.024 271.978 266.144 271.138 266.216C270.322 266.312 269.638 266.36 269.086 266.36C267.694 266.36 266.518 266.192 265.558 265.856C264.622 265.496 263.866 264.944 263.29 264.2C262.714 263.432 262.294 262.448 262.03 261.248C261.79 260.048 261.67 258.596 261.67 256.892C261.67 255.188 261.802 253.748 262.066 252.572C262.354 251.396 262.798 250.448 263.398 249.728C263.998 248.984 264.766 248.456 265.702 248.144C266.662 247.808 267.814 247.64 269.158 247.64ZM290.814 253.436V262.652C290.886 263.54 291.582 264.068 292.902 264.236L292.794 266.36C290.898 266.36 289.47 265.88 288.51 264.92C286.374 265.88 284.214 266.36 282.03 266.36C280.374 266.36 279.114 265.892 278.25 264.956C277.386 264.02 276.954 262.676 276.954 260.924C276.954 259.172 277.398 257.888 278.286 257.072C279.174 256.232 280.566 255.716 282.462 255.524L288.114 254.984V253.436C288.114 252.212 287.85 251.336 287.322 250.808C286.794 250.28 286.074 250.016 285.162 250.016C284.202 250.016 283.218 250.052 282.21 250.124C281.226 250.172 280.218 250.256 279.186 250.376L278.07 250.484L277.962 248.432C280.53 247.904 282.87 247.64 284.982 247.64C287.022 247.64 288.498 248.108 289.41 249.044C290.346 249.956 290.814 251.42 290.814 253.436ZM279.726 260.78C279.726 262.988 280.638 264.092 282.462 264.092C284.07 264.092 285.678 263.816 287.286 263.264L288.114 262.976V257.036L282.786 257.54C281.706 257.636 280.926 257.948 280.446 258.476C279.966 259.004 279.726 259.772 279.726 260.78ZM298.841 251.384V266H296.141V248H298.805V249.26C300.749 248.18 302.609 247.64 304.385 247.64C305.585 247.64 306.569 247.796 307.337 248.108C308.129 248.396 308.753 248.888 309.209 249.584C309.689 250.28 310.013 251.192 310.181 252.32C310.373 253.448 310.469 254.84 310.469 256.496V266H307.805V256.568C307.805 255.32 307.745 254.276 307.625 253.436C307.529 252.596 307.337 251.924 307.049 251.42C306.761 250.916 306.365 250.568 305.861 250.376C305.357 250.16 304.709 250.052 303.917 250.052C303.149 250.052 302.333 250.172 301.469 250.412C300.629 250.628 299.981 250.844 299.525 251.06L298.841 251.384Z" fill="white"/>
<path d="M151.94 108.732C151.94 106.67 153.604 105 155.657 105H236.385C238.439 105 240.103 106.67 240.103 108.732V164C240.103 188.437 220.365 208.25 196.021 208.25C171.674 208.25 151.94 188.437 151.94 164V108.732Z" stroke="white" stroke-width="4" stroke-linecap="round" stroke-linejoin="round"/>
<path d="M162.96 60.75H229.083V105H162.96V60.75Z" stroke="white" stroke-width="4" stroke-linejoin="round"/>
<path d="M185.001 79.1875V86.5625M207.042 79.1875V86.5625M151.94 164H240.103" stroke="white" stroke-width="4" stroke-linecap="round" stroke-linejoin="round"/>
</g>
<defs>
<filter id="filter0_d_92_124" x="0" y="0" width="389.994" height="311" filterUnits="userSpaceOnUse" color-interpolation-filters="sRGB">
<feFlood flood-opacity="0" result="BackgroundImageFix"/>
<feColorMatrix in="SourceAlpha" type="matrix" values="0 0 0 0 0 0 0 0 0 0 0 0 0 0 0 0 0 0 127 0" result="hardAlpha"/>
<feOffset dy="4"/>
<feGaussianBlur stdDeviation="2"/>
<feComposite in2="hardAlpha" operator="out"/>
<feColorMatrix type="matrix" values="0 0 0 0 0 0 0 0 0 0 0 0 0 0 0 0 0 0 0.25 0"/>
<feBlend mode="normal" in2="BackgroundImageFix" result="effect1_dropShadow_92_124"/>
<feBlend mode="normal" in="SourceGraphic" in2="effect1_dropShadow_92_124" result="shape"/>
</filter>
</defs>
</svg>
