<svg width="1539" height="1058" viewBox="0 0 1539 1058" fill="none" xmlns="http://www.w3.org/2000/svg">
<path d="M901.504 96.5092C901.634 71.3538 901.719 59.231 904.823 49.4433C911.543 28.2538 928.196 11.6868 949.42 5.07628C959.224 2.02279 971.347 2 996.502 2H1489.5C1515.73 2 1537 23.2665 1537 49.5V104.842C1537 118.206 1531.18 130.907 1521.05 139.628L1501.79 156.214C1497.84 159.617 1495.94 161.253 1493.94 162.734C1490.99 164.92 1487.86 166.864 1484.59 168.545C1482.38 169.684 1480.07 170.666 1475.27 172.704L1450.45 183.248C1442.57 186.594 1438.78 188.2 1434.86 189.331C1431.36 190.341 1427.79 191.069 1424.17 191.507C1420.13 191.997 1416.01 192 1407.45 192H996.502C971.112 192 958.875 191.977 949.012 188.883C927.655 182.185 910.963 165.406 904.375 144.015C901.332 134.136 901.373 121.9 901.504 96.5092Z" fill="black" stroke="#9C9C9C" stroke-width="4"/>
<path d="M715.503 96.6569C715.633 71.3639 715.719 59.1748 718.856 49.3381C725.586 28.2343 742.174 11.7315 763.312 5.1096C773.165 2.02304 785.355 2 810.648 2H1127.64C1138.16 2 1143.23 2.00474 1148 2.68673C1162.33 4.7397 1175.64 11.3159 1185.98 21.4575C1189.41 24.8265 1192.49 28.8498 1198.89 37.2148L1199.01 37.3741C1205.25 45.5425 1208.51 49.8058 1212.18 53.3979C1223.12 64.1361 1237.21 71.0991 1252.39 73.2729C1257.47 74 1262.83 74 1273.12 74H1273.32H1380.85C1413.52 74 1440 100.481 1440 133.147C1440 165.812 1413.52 192.293 1380.85 192.293H810.648C785.119 192.293 772.816 192.27 762.904 189.143C741.634 182.433 725.007 165.72 718.407 144.417C715.331 134.489 715.371 122.185 715.503 96.6569Z" fill="black" stroke="#9C9C9C" stroke-width="4"/>
<path d="M376.503 96.6569C376.633 71.3639 376.719 59.1748 379.856 49.3381C386.586 28.2343 403.174 11.7315 424.312 5.1096C434.165 2.02304 446.355 2 471.648 2H788.021C799.903 2 805.622 2.00605 810.993 2.8773C824.042 4.99393 836.191 10.8682 845.954 19.7813C849.973 23.4501 853.529 27.9287 860.908 37.2421L861.048 37.4189C868.255 46.5138 872.016 51.2609 876.301 55.1728C886.638 64.6102 899.501 70.83 913.318 73.0711C919.045 74.0001 925.102 74 936.706 74H936.931H1041.85C1074.52 74 1101 100.481 1101 133.147C1101 165.812 1074.52 192.293 1041.85 192.293H471.648C446.119 192.293 433.816 192.27 423.904 189.143C402.634 182.433 386.007 165.72 379.407 144.417C376.331 134.489 376.371 122.185 376.503 96.6569Z" fill="#0A0707" stroke="#9C9C9C" stroke-width="4"/>
<path d="M2 8.16441C2 4.75989 4.75991 2 8.16446 2H451.522C465.096 2 471.524 2.01542 477.475 3.58259C482.8 4.985 487.844 7.29334 492.387 10.4066C497.463 13.8855 501.676 18.7398 510.549 29.0117L522.371 42.697L522.6 42.9625C531.187 52.9026 535.745 58.1803 541.299 61.9868C546.22 65.3594 551.685 67.8601 557.454 69.3794C563.965 71.0941 570.939 71.094 584.074 71.0939H584.425H1537V978C1537 992.034 1537 1002.44 1536.33 1010.68C1535.65 1018.89 1534.33 1024.77 1531.77 1029.79C1527.17 1038.82 1519.82 1046.17 1510.79 1050.77C1505.77 1053.33 1499.89 1054.65 1491.68 1055.33C1483.44 1056 1473.03 1056 1459 1056H464.353H7.1439C4.30301 1056 2 1053.7 2 1050.86V8.16441Z" fill="#131F31" stroke="#9C9C9C" stroke-width="4"/>
<path d="M747.653 300.5C737.653 300.5 732.653 304.267 732.653 311.8C732.653 313.867 732.886 315.6 733.353 317C733.886 318.333 734.786 319.5 736.053 320.5C737.386 321.433 739.186 322.233 741.453 322.9C743.719 323.567 746.619 324.3 750.153 325.1C753.686 325.9 756.653 326.767 759.053 327.7C761.519 328.633 763.519 329.8 765.053 331.2C766.586 332.6 767.686 334.3 768.353 336.3C769.086 338.3 769.453 340.733 769.453 343.6C769.453 357.8 762.086 364.9 747.353 364.9C744.886 364.9 742.119 364.733 739.053 364.4C736.053 364.133 732.719 363.733 729.053 363.2L725.453 362.7L726.253 356.3C735.386 357.5 742.286 358.1 746.953 358.1C756.819 358.1 761.753 353.467 761.753 344.2C761.753 342.333 761.486 340.767 760.953 339.5C760.486 338.167 759.653 337.067 758.453 336.2C757.319 335.267 755.753 334.5 753.753 333.9C751.819 333.233 749.353 332.6 746.353 332C742.486 331.2 739.186 330.3 736.453 329.3C733.719 328.3 731.486 327.067 729.753 325.6C728.019 324.067 726.753 322.233 725.953 320.1C725.219 317.967 724.853 315.367 724.853 312.3C724.853 299.9 732.286 293.7 747.153 293.7C752.019 293.7 757.853 294.2 764.653 295.2L768.053 295.7L767.353 302.2C762.686 301.667 758.719 301.267 755.453 301C752.186 300.667 749.586 300.5 747.653 300.5ZM790.952 364L776.752 314H784.252L796.752 357.5H800.052L812.652 314H820.152L799.352 386.2H791.852L798.352 364H790.952ZM845.492 319.7C838.225 319.7 834.592 322.233 834.592 327.3C834.592 329.7 835.425 331.333 837.092 332.2C838.825 333.2 842.625 334.2 848.492 335.2C851.492 335.733 854.025 336.333 856.092 337C858.158 337.6 859.825 338.467 861.092 339.6C862.425 340.667 863.358 342.033 863.892 343.7C864.492 345.367 864.792 347.5 864.792 350.1C864.792 355.3 863.158 359.1 859.892 361.5C856.625 363.833 851.792 365 845.392 365C843.325 365 841.058 364.867 838.592 364.6C836.192 364.4 833.592 364.067 830.792 363.6L827.792 363.1L828.192 356.6C831.992 357.133 835.325 357.567 838.192 357.9C841.058 358.167 843.458 358.3 845.392 358.3C849.258 358.3 852.192 357.7 854.192 356.5C856.258 355.233 857.292 353.133 857.292 350.2C857.292 347.4 856.425 345.433 854.692 344.3C852.892 343.233 849.092 342.267 843.292 341.4C840.358 340.933 837.858 340.4 835.792 339.8C833.792 339.133 832.125 338.3 830.792 337.3C829.525 336.233 828.592 334.9 827.992 333.3C827.392 331.7 827.092 329.7 827.092 327.3C827.092 324.9 827.525 322.8 828.392 321C829.325 319.2 830.592 317.7 832.192 316.5C833.792 315.3 835.692 314.433 837.892 313.9C840.092 313.3 842.492 313 845.092 313C847.158 313 849.458 313.133 851.992 313.4C854.525 313.6 857.325 313.933 860.392 314.4L863.192 314.9L862.992 321.3C859.258 320.767 855.925 320.367 852.992 320.1C850.125 319.833 847.625 319.7 845.492 319.7ZM902.176 314V320.5H886.276V344.4C886.276 350.2 886.71 353.967 887.576 355.7C888.376 357.5 890.343 358.4 893.476 358.4L902.376 357.8L902.876 364C900.61 364.333 898.61 364.6 896.876 364.8C895.21 365 893.81 365.1 892.676 365.1C890.076 365.1 887.876 364.8 886.076 364.2C884.343 363.667 882.943 362.7 881.876 361.3C880.81 359.9 880.043 358.033 879.576 355.7C879.11 353.367 878.876 350.4 878.876 346.8V320.5H871.776V314H878.876V298.7H886.276V314H902.176ZM945.335 357.8L948.235 357.5L948.435 363.4C944.635 363.933 941.101 364.333 937.835 364.6C934.635 364.867 931.668 365 928.935 365C921.735 365 916.635 362.933 913.635 358.8C910.635 354.6 909.135 348.1 909.135 339.3C909.135 321.767 916.101 313 930.035 313C936.835 313 941.868 314.9 945.135 318.7C948.468 322.433 950.135 328.333 950.135 336.4L949.735 342.1H916.735C916.735 347.7 917.735 351.833 919.735 354.5C921.735 357.1 925.235 358.4 930.235 358.4C935.235 358.4 940.268 358.2 945.335 357.8ZM916.635 336.1H942.635C942.635 329.967 941.635 325.633 939.635 323.1C937.701 320.567 934.535 319.3 930.135 319.3C925.668 319.3 922.301 320.633 920.035 323.3C917.835 325.967 916.701 330.233 916.635 336.1ZM969.323 323.4V364H961.823V314H969.223V317.5C974.223 314.5 979.09 313 983.823 313C990.023 313 994.356 314.7 996.823 318.1C997.956 317.433 999.256 316.8 1000.72 316.2C1002.19 315.533 1003.72 314.967 1005.32 314.5C1006.99 314.033 1008.62 313.667 1010.22 313.4C1011.82 313.133 1013.29 313 1014.62 313C1017.96 313 1020.69 313.433 1022.82 314.3C1025.02 315.1 1026.76 316.467 1028.02 318.4C1029.36 320.267 1030.26 322.8 1030.72 326C1031.26 329.133 1031.52 333 1031.52 337.6V364H1024.02V337.8C1024.02 334.333 1023.89 331.433 1023.62 329.1C1023.36 326.767 1022.82 324.9 1022.02 323.5C1021.29 322.1 1020.22 321.133 1018.82 320.6C1017.49 320 1015.72 319.7 1013.52 319.7C1011.32 319.7 1009.06 320.033 1006.72 320.7C1004.39 321.3 1002.59 321.9 1001.32 322.5L999.423 323.4C1000.29 325.533 1000.72 330.4 1000.72 338V364H993.223V338.2C993.223 334.6 993.09 331.633 992.823 329.3C992.556 326.9 992.023 325 991.223 323.6C990.49 322.133 989.423 321.133 988.023 320.6C986.69 320 984.923 319.7 982.723 319.7C980.59 319.7 978.39 320.033 976.123 320.7C973.923 321.3 972.223 321.9 971.023 322.5L969.323 323.4ZM1074.89 364H1067.39V314H1074.89V364ZM1074.89 302.7H1067.39V294H1074.89V302.7ZM1104.96 319.7C1097.7 319.7 1094.06 322.233 1094.06 327.3C1094.06 329.7 1094.9 331.333 1096.56 332.2C1098.3 333.2 1102.1 334.2 1107.96 335.2C1110.96 335.733 1113.5 336.333 1115.56 337C1117.63 337.6 1119.3 338.467 1120.56 339.6C1121.9 340.667 1122.83 342.033 1123.36 343.7C1123.96 345.367 1124.26 347.5 1124.26 350.1C1124.26 355.3 1122.63 359.1 1119.36 361.5C1116.1 363.833 1111.26 365 1104.86 365C1102.8 365 1100.53 364.867 1098.06 364.6C1095.66 364.4 1093.06 364.067 1090.26 363.6L1087.26 363.1L1087.66 356.6C1091.46 357.133 1094.8 357.567 1097.66 357.9C1100.53 358.167 1102.93 358.3 1104.86 358.3C1108.73 358.3 1111.66 357.7 1113.66 356.5C1115.73 355.233 1116.76 353.133 1116.76 350.2C1116.76 347.4 1115.9 345.433 1114.16 344.3C1112.36 343.233 1108.56 342.267 1102.76 341.4C1099.83 340.933 1097.33 340.4 1095.26 339.8C1093.26 339.133 1091.6 338.3 1090.26 337.3C1089 336.233 1088.06 334.9 1087.46 333.3C1086.86 331.7 1086.56 329.7 1086.56 327.3C1086.56 324.9 1087 322.8 1087.86 321C1088.8 319.2 1090.06 317.7 1091.66 316.5C1093.26 315.3 1095.16 314.433 1097.36 313.9C1099.56 313.3 1101.96 313 1104.56 313C1106.63 313 1108.93 313.133 1111.46 313.4C1114 313.6 1116.8 313.933 1119.86 314.4L1122.66 314.9L1122.46 321.3C1118.73 320.767 1115.4 320.367 1112.46 320.1C1109.6 319.833 1107.1 319.7 1104.96 319.7ZM1178.12 300.5C1168.12 300.5 1163.12 304.267 1163.12 311.8C1163.12 313.867 1163.35 315.6 1163.82 317C1164.35 318.333 1165.25 319.5 1166.52 320.5C1167.85 321.433 1169.65 322.233 1171.92 322.9C1174.19 323.567 1177.09 324.3 1180.62 325.1C1184.15 325.9 1187.12 326.767 1189.52 327.7C1191.99 328.633 1193.99 329.8 1195.52 331.2C1197.05 332.6 1198.15 334.3 1198.82 336.3C1199.55 338.3 1199.92 340.733 1199.92 343.6C1199.92 357.8 1192.55 364.9 1177.82 364.9C1175.35 364.9 1172.59 364.733 1169.52 364.4C1166.52 364.133 1163.19 363.733 1159.52 363.2L1155.92 362.7L1156.72 356.3C1165.85 357.5 1172.75 358.1 1177.42 358.1C1187.29 358.1 1192.22 353.467 1192.22 344.2C1192.22 342.333 1191.95 340.767 1191.42 339.5C1190.95 338.167 1190.12 337.067 1188.92 336.2C1187.79 335.267 1186.22 334.5 1184.22 333.9C1182.29 333.233 1179.82 332.6 1176.82 332C1172.95 331.2 1169.65 330.3 1166.92 329.3C1164.19 328.3 1161.95 327.067 1160.22 325.6C1158.49 324.067 1157.22 322.233 1156.42 320.1C1155.69 317.967 1155.32 315.367 1155.32 312.3C1155.32 299.9 1162.75 293.7 1177.62 293.7C1182.49 293.7 1188.32 294.2 1195.12 295.2L1198.52 295.7L1197.82 302.2C1193.15 301.667 1189.19 301.267 1185.92 301C1182.65 300.667 1180.05 300.5 1178.12 300.5ZM1245.92 357.8L1248.82 357.5L1249.02 363.4C1245.22 363.933 1241.69 364.333 1238.42 364.6C1235.22 364.867 1232.25 365 1229.52 365C1222.32 365 1217.22 362.933 1214.22 358.8C1211.22 354.6 1209.72 348.1 1209.72 339.3C1209.72 321.767 1216.69 313 1230.62 313C1237.42 313 1242.45 314.9 1245.72 318.7C1249.05 322.433 1250.72 328.333 1250.72 336.4L1250.32 342.1H1217.32C1217.32 347.7 1218.32 351.833 1220.32 354.5C1222.32 357.1 1225.82 358.4 1230.82 358.4C1235.82 358.4 1240.85 358.2 1245.92 357.8ZM1217.22 336.1H1243.22C1243.22 329.967 1242.22 325.633 1240.22 323.1C1238.29 320.567 1235.12 319.3 1230.72 319.3C1226.25 319.3 1222.89 320.633 1220.62 323.3C1218.42 325.967 1217.29 330.233 1217.22 336.1ZM1281.11 313C1283.31 313 1287.04 313.4 1292.31 314.2L1294.71 314.5L1294.41 320.6C1289.14 320 1285.21 319.7 1282.61 319.7C1279.81 319.7 1277.44 320 1275.51 320.6C1273.64 321.2 1272.14 322.233 1271.01 323.7C1269.94 325.167 1269.18 327.133 1268.71 329.6C1268.24 332 1268.01 335.033 1268.01 338.7C1268.01 342.367 1268.21 345.467 1268.61 348C1269.01 350.467 1269.74 352.467 1270.81 354C1271.94 355.533 1273.44 356.633 1275.31 357.3C1277.24 357.967 1279.71 358.3 1282.71 358.3L1294.51 357.4L1294.81 363.6C1291.68 364.067 1288.94 364.4 1286.61 364.6C1284.34 364.867 1282.44 365 1280.91 365C1277.04 365 1273.78 364.533 1271.11 363.6C1268.51 362.6 1266.41 361.067 1264.81 359C1263.21 356.867 1262.04 354.133 1261.31 350.8C1260.64 347.467 1260.31 343.433 1260.31 338.7C1260.31 333.967 1260.68 329.967 1261.41 326.7C1262.21 323.433 1263.44 320.8 1265.11 318.8C1266.78 316.733 1268.91 315.267 1271.51 314.4C1274.18 313.467 1277.38 313 1281.11 313ZM1337.16 354.6V314H1344.66V364H1337.16V360.5C1332.16 363.5 1327.23 365 1322.36 365C1318.96 365 1316.16 364.6 1313.96 363.8C1311.76 363 1310.03 361.633 1308.76 359.7C1307.56 357.767 1306.7 355.233 1306.16 352.1C1305.7 348.9 1305.46 344.9 1305.46 340.1V314H1312.96V340C1312.96 343.6 1313.1 346.6 1313.36 349C1313.63 351.333 1314.13 353.2 1314.86 354.6C1315.6 356 1316.66 356.967 1318.06 357.5C1319.46 358.033 1321.26 358.3 1323.46 358.3C1325.66 358.3 1327.9 358 1330.16 357.4C1332.43 356.733 1334.16 356.1 1335.36 355.5L1337.16 354.6ZM1366.59 364H1359.09V314H1366.49V320.8C1372.22 316.867 1378.32 314.233 1384.79 312.9V320.5C1383.39 320.767 1381.92 321.133 1380.39 321.6C1378.92 322.067 1377.46 322.567 1375.99 323.1C1374.59 323.567 1373.29 324.067 1372.09 324.6C1370.89 325.133 1369.89 325.6 1369.09 326L1366.59 327.3V364ZM1427.66 357.8L1430.56 357.5L1430.76 363.4C1426.96 363.933 1423.43 364.333 1420.16 364.6C1416.96 364.867 1413.99 365 1411.26 365C1404.06 365 1398.96 362.933 1395.96 358.8C1392.96 354.6 1391.46 348.1 1391.46 339.3C1391.46 321.767 1398.43 313 1412.36 313C1419.16 313 1424.19 314.9 1427.46 318.7C1430.79 322.433 1432.46 328.333 1432.46 336.4L1432.06 342.1H1399.06C1399.06 347.7 1400.06 351.833 1402.06 354.5C1404.06 357.1 1407.56 358.4 1412.56 358.4C1417.56 358.4 1422.59 358.2 1427.66 357.8ZM1398.96 336.1H1424.96C1424.96 329.967 1423.96 325.633 1421.96 323.1C1420.03 320.567 1416.86 319.3 1412.46 319.3C1407.99 319.3 1404.63 320.633 1402.36 323.3C1400.16 325.967 1399.03 330.233 1398.96 336.1Z" fill="white"/>
<path d="M1200.5 36C1200.91 35.7177 1200.91 35.7176 1200.91 35.7175L1200.91 35.7171L1200.91 35.7156L1200.91 35.7102L1200.89 35.6891L1200.84 35.6069C1200.79 35.5347 1200.71 35.4282 1200.62 35.2901C1200.42 35.014 1200.14 34.6119 1199.77 34.106C1199.04 33.0945 1197.99 31.668 1196.71 30.0066C1194.14 26.6857 1190.62 22.4174 1186.85 18.6464C1181.55 13.3463 1175.38 9.56802 1170.54 7.11645C1168.25 5.95548 1166.25 5.09005 1164.78 4.5H1310V68.5H1243.06C1243.06 68.5 1243.06 68.5 1243.06 68.5C1243.04 68.4947 1243.01 68.488 1242.98 68.4797C1242.89 68.456 1242.75 68.4197 1242.57 68.3698C1242.21 68.2698 1241.68 68.1154 1241 67.8988C1239.65 67.4655 1237.71 66.7833 1235.38 65.7901C1230.73 63.8033 1224.52 60.5748 1218.31 55.6096C1212.1 50.6399 1207.75 45.6719 1204.96 41.95C1203.57 40.0892 1202.56 38.5403 1201.9 37.4593C1201.58 36.9188 1201.34 36.4953 1201.18 36.2083C1201.1 36.0648 1201.04 35.9554 1201 35.8826C1200.98 35.8462 1200.97 35.819 1200.96 35.8012L1200.95 35.7816L1200.95 35.7772L1200.95 35.7764L1200.95 35.7763L1200.95 35.7762L1200.93 35.7458L1200.91 35.7177L1200.5 36Z" fill="#292828" stroke="white"/>
<path d="M1249 38.0833V36H1271.92V38.0833H1249Z" fill="white"/>
<rect x="1311.5" y="4.5" width="110" height="64" fill="#292828" stroke="white"/>
<path d="M1351.5 51.5H1374.43V33.905H1351.5V51.5ZM1376.31 40.97V39.095H1381.5V21.5H1358.57V32.03H1356.69V19.625H1383.38V40.9719L1376.31 40.97ZM1349.62 53.375V32.03H1376.31V53.375H1349.62Z" fill="white"/>
<path d="M1528.65 27.7401L1528.66 27.7577L1528.67 27.7745C1530.28 30.2181 1531.23 32.9132 1532.06 35.2808C1532.23 35.7516 1532.39 36.2095 1532.55 36.6498C1533.53 40.3697 1534.02 43.0922 1534.26 44.8798C1534.38 45.7754 1534.44 46.4363 1534.47 46.8704C1534.49 47.0874 1534.49 47.2477 1534.5 47.3523C1534.5 47.4046 1534.5 47.443 1534.5 47.4675L1534.5 47.494L1534.5 47.4995V47.4999V47.5004V69H1422.5V4.50425L1422.66 4.5056L1424.54 4.52147C1426.17 4.53514 1428.51 4.55467 1431.35 4.57811C1437.02 4.62498 1444.7 4.68748 1452.7 4.74999C1468.69 4.87498 1485.98 5 1491.16 5C1501.37 5 1511.62 9.66818 1517.93 14.8853C1522.16 18.3767 1526.22 23.2976 1528.65 27.7401Z" fill="#292828" stroke="white"/>
<path d="M1463 48.3275L1461.67 47L1472.17 36.5L1461.67 26L1463 24.6725L1473.5 35.1725L1484 24.6725L1485.33 26L1474.83 36.5L1485.33 47L1484 48.3275L1473.5 37.8275L1463 48.3275Z" fill="white"/>
</svg>
