<svg width="210" height="68" viewBox="0 0 210 68" fill="none" xmlns="http://www.w3.org/2000/svg">
<path fill-rule="evenodd" clip-rule="evenodd" d="M9.37502 30.875C9.37502 27.394 10.7578 24.0556 13.2192 21.5942C15.6807 19.1328 19.0191 17.75 22.5 17.75C25.981 17.75 29.3194 19.1328 31.7808 21.5942C34.2422 24.0556 35.625 27.394 35.625 30.875V37.9325L39.0413 44.765C39.1985 45.0795 39.2728 45.4289 39.257 45.7802C39.2412 46.1314 39.1359 46.4728 38.951 46.7719C38.7661 47.071 38.5079 47.3178 38.2008 47.489C37.8937 47.6602 37.5479 47.75 37.1963 47.75H29.7638C29.3467 49.3592 28.4071 50.7843 27.0924 51.8017C25.7777 52.8191 24.1624 53.3711 22.5 53.3711C20.8377 53.3711 19.2223 52.8191 17.9077 51.8017C16.593 50.7843 15.6533 49.3592 15.2363 47.75H7.80377C7.45217 47.75 7.10639 47.6602 6.79927 47.489C6.49216 47.3178 6.23391 47.071 6.04904 46.7719C5.86418 46.4728 5.75885 46.1314 5.74305 45.7802C5.72725 45.4289 5.80151 45.0795 5.95877 44.765L9.37502 37.9325V30.875ZM19.2525 47.75C19.5817 48.32 20.0551 48.7934 20.6251 49.1225C21.1952 49.4516 21.8418 49.6248 22.5 49.6248C23.1583 49.6248 23.8049 49.4516 24.3749 49.1225C24.945 48.7934 25.4184 48.32 25.7475 47.75H19.2525ZM22.5 21.5C20.0136 21.5 17.629 22.4877 15.8709 24.2459C14.1127 26.004 13.125 28.3886 13.125 30.875V37.9325C13.125 38.5144 12.9895 39.0883 12.7294 39.6087L10.5356 44H34.4663L32.2725 39.6087C32.0117 39.0884 31.8756 38.5145 31.875 37.9325V30.875C31.875 28.3886 30.8873 26.004 29.1291 24.2459C27.371 22.4877 24.9864 21.5 22.5 21.5Z" fill="white"/>
<path d="M73.8193 26.868H76.5244V43H73.5883L64.4502 31.2227V43H61.712V26.868H64.4502L73.8193 38.9093V26.868ZM86.3029 40.8887C87.4245 40.8887 88.3483 40.5148 89.074 39.767C89.8218 39.0192 90.1957 38.0515 90.1957 36.8639C90.1957 35.6763 89.8218 34.7086 89.074 33.9608C88.3483 33.2131 87.4245 32.8392 86.3029 32.8392C85.1813 32.8392 84.2575 33.2131 83.5318 33.9608C82.806 34.7086 82.4431 35.6763 82.4431 36.8639C82.4431 38.0515 82.806 39.0082 83.5318 39.734C84.2575 40.5038 85.1813 40.8887 86.3029 40.8887ZM86.3029 43.1979C84.4555 43.1979 82.916 42.5931 81.6843 41.3835C80.4527 40.1519 79.8369 38.6454 79.8369 36.8639C79.8369 35.0825 80.4527 33.5869 81.6843 32.3773C82.916 31.1457 84.4555 30.5299 86.3029 30.5299C88.1503 30.5299 89.6898 31.1457 90.9215 32.3773C92.1531 33.5869 92.7689 35.0825 92.7689 36.8639C92.7689 38.5794 92.1531 40.0749 90.9215 41.3505C89.6898 42.5821 88.1503 43.1979 86.3029 43.1979ZM98.8599 32.8062V39.0412C98.8599 39.6351 99.0139 40.1079 99.3218 40.4598C99.6517 40.7897 100.092 40.9546 100.641 40.9546C101.147 40.9546 101.675 40.6797 102.225 40.1299L103.281 41.9773C102.357 42.7911 101.356 43.1979 100.278 43.1979C99.1568 43.1979 98.2111 42.8131 97.4414 42.0433C96.6716 41.2515 96.2867 40.2289 96.2867 38.9753V32.8062H94.7362V30.7278H96.2867V26.868H98.8599V30.7278H102.093V32.8062H98.8599ZM107.922 43H105.349V30.7278H107.922V43ZM105.019 27.099C105.019 26.6591 105.173 26.2852 105.481 25.9773C105.811 25.6474 106.207 25.4825 106.669 25.4825C107.109 25.4825 107.482 25.6474 107.79 25.9773C108.12 26.2852 108.285 26.6591 108.285 27.099C108.285 27.5608 108.12 27.9567 107.79 28.2866C107.482 28.5945 107.109 28.7485 106.669 28.7485C106.207 28.7485 105.822 28.5835 105.514 28.2536C105.184 27.9457 105.019 27.5608 105.019 27.099ZM114.86 30.7278H118.093V32.8062H114.86V43H112.287V32.8062H110.736V30.7278H112.287V29.7711C112.287 28.5175 112.672 27.5058 113.441 26.7361C114.211 25.9443 115.157 25.5485 116.278 25.5485C117.4 25.5485 118.401 25.9553 119.281 26.7691L118.225 28.5835C117.697 28.0557 117.169 27.7918 116.641 27.7918C116.092 27.7918 115.652 27.9677 115.322 28.3196C115.014 28.6495 114.86 29.1113 114.86 29.7052V30.7278ZM123.172 43H120.599V30.7278H123.172V43ZM120.269 27.099C120.269 26.6591 120.423 26.2852 120.731 25.9773C121.061 25.6474 121.457 25.4825 121.919 25.4825C122.359 25.4825 122.732 25.6474 123.04 25.9773C123.37 26.2852 123.535 26.6591 123.535 27.099C123.535 27.5608 123.37 27.9567 123.04 28.2866C122.732 28.5945 122.359 28.7485 121.919 28.7485C121.457 28.7485 121.072 28.5835 120.764 28.2536C120.434 27.9457 120.269 27.5608 120.269 27.099ZM126.118 36.8639C126.118 35.0165 126.756 33.499 128.032 32.3113C129.307 31.1237 130.88 30.5299 132.749 30.5299C134.597 30.5299 136.158 31.1677 137.434 32.4433L135.916 34.3237C134.86 33.4 133.794 32.9381 132.716 32.9381C131.616 32.9381 130.671 33.301 129.879 34.0268C129.109 34.7306 128.724 35.6433 128.724 36.7649C128.724 37.9086 129.109 38.8763 129.879 39.668C130.671 40.4378 131.638 40.8227 132.782 40.8227C133.926 40.8227 135.014 40.3058 136.048 39.2722L137.566 40.9216C136.004 42.4392 134.278 43.1979 132.386 43.1979C130.627 43.1979 129.142 42.6151 127.933 41.4495C126.723 40.2619 126.118 38.7333 126.118 36.8639ZM150.154 43H147.812V41.3505C146.778 42.5821 145.415 43.1979 143.721 43.1979C142.423 43.1979 141.357 42.8351 140.521 42.1093C139.707 41.3615 139.3 40.3938 139.3 39.2062C139.3 38.0186 139.74 37.1168 140.62 36.501C141.5 35.8852 142.709 35.5773 144.249 35.5773H147.614V35.1155C147.614 33.488 146.701 32.6742 144.876 32.6742C143.732 32.6742 142.544 33.0921 141.313 33.9278L140.158 32.3113C141.676 31.1237 143.369 30.5299 145.239 30.5299C146.756 30.5299 147.955 30.9148 148.834 31.6845C149.714 32.4323 150.154 33.5649 150.154 35.0825V43ZM147.581 37.3918H144.678C142.808 37.3918 141.874 37.9746 141.874 39.1402C141.874 39.734 142.105 40.1959 142.566 40.5258C143.028 40.8337 143.677 40.9876 144.513 40.9876C145.371 40.9876 146.096 40.7567 146.69 40.2948C147.284 39.811 147.581 39.1842 147.581 38.4144V37.3918ZM156.954 32.8062V39.0412C156.954 39.6351 157.108 40.1079 157.416 40.4598C157.745 40.7897 158.185 40.9546 158.735 40.9546C159.241 40.9546 159.769 40.6797 160.319 40.1299L161.374 41.9773C160.451 42.7911 159.45 43.1979 158.372 43.1979C157.251 43.1979 156.305 42.8131 155.535 42.0433C154.765 41.2515 154.38 40.2289 154.38 38.9753V32.8062H152.83V30.7278H154.38V26.868H156.954V30.7278H160.187V32.8062H156.954ZM166.016 43H163.443V30.7278H166.016V43ZM163.113 27.099C163.113 26.6591 163.267 26.2852 163.575 25.9773C163.905 25.6474 164.301 25.4825 164.763 25.4825C165.202 25.4825 165.576 25.6474 165.884 25.9773C166.214 26.2852 166.379 26.6591 166.379 27.099C166.379 27.5608 166.214 27.9567 165.884 28.2866C165.576 28.5945 165.202 28.7485 164.763 28.7485C164.301 28.7485 163.916 28.5835 163.608 28.2536C163.278 27.9457 163.113 27.5608 163.113 27.099ZM175.428 40.8887C176.55 40.8887 177.473 40.5148 178.199 39.767C178.947 39.0192 179.321 38.0515 179.321 36.8639C179.321 35.6763 178.947 34.7086 178.199 33.9608C177.473 33.2131 176.55 32.8392 175.428 32.8392C174.306 32.8392 173.383 33.2131 172.657 33.9608C171.931 34.7086 171.568 35.6763 171.568 36.8639C171.568 38.0515 171.931 39.0082 172.657 39.734C173.383 40.5038 174.306 40.8887 175.428 40.8887ZM175.428 43.1979C173.58 43.1979 172.041 42.5931 170.809 41.3835C169.578 40.1519 168.962 38.6454 168.962 36.8639C168.962 35.0825 169.578 33.5869 170.809 32.3773C172.041 31.1457 173.58 30.5299 175.428 30.5299C177.275 30.5299 178.815 31.1457 180.046 32.3773C181.278 33.5869 181.894 35.0825 181.894 36.8639C181.894 38.5794 181.278 40.0749 180.046 41.3505C178.815 42.5821 177.275 43.1979 175.428 43.1979ZM187.391 43H184.818V30.7278H187.391V32.9381C187.809 32.1904 188.381 31.6076 189.107 31.1897C189.854 30.7498 190.646 30.5299 191.482 30.5299C192.911 30.5299 194.044 30.9588 194.88 31.8165C195.716 32.6742 196.133 33.8948 196.133 35.4784V43H193.527V36.2701C193.527 34.0048 192.592 32.8722 190.723 32.8722C189.777 32.8722 188.986 33.1801 188.348 33.7959C187.71 34.3897 187.391 35.2364 187.391 36.3361V43ZM203.947 43.1979C201.967 43.1979 200.186 42.5821 198.603 41.3505L199.856 39.3381C201.264 40.4158 202.649 40.9546 204.013 40.9546C204.585 40.9546 205.036 40.8227 205.365 40.5588C205.717 40.2729 205.893 39.921 205.893 39.5031C205.893 38.8873 205.079 38.3375 203.452 37.8536C203.408 37.8316 203.353 37.8096 203.287 37.7876C203.243 37.7656 203.21 37.7546 203.188 37.7546C200.637 37.0729 199.361 35.9182 199.361 34.2907C199.361 33.1471 199.79 32.2344 200.648 31.5526C201.528 30.8708 202.682 30.5299 204.112 30.5299C205.519 30.5299 206.861 30.9478 208.137 31.7835L207.18 33.6969C206.19 33.0371 205.101 32.7072 203.914 32.7072C202.528 32.7072 201.836 33.1471 201.836 34.0268C201.836 34.4007 201.967 34.6756 202.231 34.8515C202.517 35.0055 202.979 35.1594 203.617 35.3134C204.585 35.5773 205.398 35.8412 206.058 36.1052C206.498 36.3031 206.883 36.512 207.213 36.732C208.049 37.3038 208.466 38.1725 208.466 39.3381C208.466 40.4818 208.038 41.4165 207.18 42.1423C206.344 42.846 205.266 43.1979 203.947 43.1979Z" fill="white"/>
</svg>
